<svg xmlns="http://www.w3.org/2000/svg" xmlns:xlink="http://www.w3.org/1999/xlink" width="500" zoomAndPan="magnify" viewBox="0 0 375 374.999991" height="500" preserveAspectRatio="xMidYMid meet" version="1.0"><defs><clipPath id="b7bc433c61"><path d="M 166.316406 38 L 375 38 L 375 349.769531 L 166.316406 349.769531 Z M 166.316406 38 " clip-rule="nonzero"/></clipPath><clipPath id="51d165fd87"><path d="M 15 208.113281 L 178.617188 208.113281 L 178.617188 349.769531 L 15 349.769531 Z M 15 208.113281 " clip-rule="nonzero"/></clipPath><clipPath id="a53490d993"><path d="M 117.109375 123.011719 L 276.539062 123.011719 L 276.539062 349.769531 L 117.109375 349.769531 Z M 117.109375 123.011719 " clip-rule="nonzero"/></clipPath><clipPath id="6ad28b92b4"><path d="M 0 25.121094 L 190.429688 25.121094 L 190.429688 349.769531 L 0 349.769531 Z M 0 25.121094 " clip-rule="nonzero"/></clipPath></defs><g clip-path="url(#b7bc433c61)"><path fill="#1351b4" d="M 317.84375 349.769531 L 375.003906 349.769531 L 195.035156 38.140625 L 166.453125 87.632812 L 317.84375 349.769531 " fill-opacity="1" fill-rule="nonzero"/></g><g clip-path="url(#51d165fd87)"><path fill="#25cffe" d="M 96.621094 208.550781 L 15.0625 349.769531 L 178.179688 349.769531 Z M 96.621094 208.550781 " fill-opacity="1" fill-rule="nonzero"/></g><g clip-path="url(#a53490d993)"><path fill="#1351b4" d="M 219.546875 349.769531 L 276.476562 349.769531 L 145.769531 123.445312 L 117.304688 172.734375 L 219.546875 349.769531 " fill-opacity="1" fill-rule="nonzero"/></g><g clip-path="url(#6ad28b92b4)"><path fill="#1351b4" d="M 5.117188 349.769531 L 0 349.769531 L 187.746094 25.117188 L 190.183594 29.371094 L 5.117188 349.769531 " fill-opacity="1" fill-rule="nonzero"/></g></svg>