<svg xmlns="http://www.w3.org/2000/svg" xmlns:xlink="http://www.w3.org/1999/xlink" width="500" zoomAndPan="magnify" viewBox="0 0 375 374.999991" height="500" preserveAspectRatio="xMidYMid meet" version="1.0"><defs><g/><clipPath id="19eba4aa37"><path d="M 76.917969 118.3125 L 173.429688 118.3125 L 173.429688 262.371094 L 76.917969 262.371094 Z M 76.917969 118.3125 " clip-rule="nonzero"/></clipPath><clipPath id="ab59bb05f3"><path d="M 6.828125 197 L 82.605469 197 L 82.605469 262.371094 L 6.828125 262.371094 Z M 6.828125 197 " clip-rule="nonzero"/></clipPath><clipPath id="b3fbe2a6d6"><path d="M 54.160156 157.625 L 127.890625 157.625 L 127.890625 262.371094 L 54.160156 262.371094 Z M 54.160156 157.625 " clip-rule="nonzero"/></clipPath><clipPath id="ca1ca40edb"><path d="M 0 112.402344 L 88 112.402344 L 88 262.371094 L 0 262.371094 Z M 0 112.402344 " clip-rule="nonzero"/></clipPath></defs><g clip-path="url(#19eba4aa37)"><path fill="#1351b4" d="M 146.996094 262.371094 L 173.429688 262.371094 L 90.199219 118.417969 L 76.980469 141.28125 L 146.996094 262.371094 " fill-opacity="1" fill-rule="nonzero"/></g><g clip-path="url(#ab59bb05f3)"><path fill="#25cffe" d="M 44.683594 197.136719 L 6.964844 262.371094 L 82.402344 262.371094 Z M 44.683594 197.136719 " fill-opacity="1" fill-rule="nonzero"/></g><g clip-path="url(#b3fbe2a6d6)"><path fill="#1351b4" d="M 101.535156 262.371094 L 127.863281 262.371094 L 67.414062 157.824219 L 54.25 180.59375 L 101.535156 262.371094 " fill-opacity="1" fill-rule="nonzero"/></g><g clip-path="url(#ca1ca40edb)"><path fill="#1351b4" d="M 2.367188 262.371094 L 0 262.371094 L 86.828125 112.402344 L 87.953125 114.367188 L 2.367188 262.371094 " fill-opacity="1" fill-rule="nonzero"/></g><g fill="#1351b4" fill-opacity="1"><g transform="translate(203.457364, 209.815368)"><g><path d="M 25.34375 0 L 7.15625 0 L 7.15625 -71.546875 L 25.34375 -71.546875 Z M 25.34375 0 "/></g></g></g><g fill="#1351b4" fill-opacity="1"><g transform="translate(227.776016, 209.815368)"><g><path d="M 7.15625 -71.546875 L 40.984375 -71.546875 C 49.023438 -71.546875 55.414062 -69.925781 60.15625 -66.6875 C 64.894531 -63.457031 67.265625 -59.117188 67.265625 -53.671875 C 67.265625 -49.921875 66.171875 -46.628906 63.984375 -43.796875 C 61.804688 -40.972656 58.8125 -39.015625 55 -37.921875 C 59.488281 -37.035156 63.0625 -34.957031 65.71875 -31.6875 C 68.382812 -28.414062 69.71875 -24.460938 69.71875 -19.828125 C 69.71875 -13.765625 67.242188 -8.941406 62.296875 -5.359375 C 57.359375 -1.785156 50.664062 0 42.21875 0 L 7.15625 0 Z M 25.25 -57.65625 L 25.25 -42.9375 L 39.96875 -42.9375 C 42.625 -42.9375 44.734375 -43.597656 46.296875 -44.921875 C 47.867188 -46.253906 48.65625 -48.078125 48.65625 -50.390625 C 48.65625 -52.640625 47.867188 -54.410156 46.296875 -55.703125 C 44.734375 -57.003906 42.625 -57.65625 39.96875 -57.65625 Z M 25.25 -29.84375 L 25.25 -14 L 39.96875 -14 C 43.375 -14 46.046875 -14.710938 47.984375 -16.140625 C 49.929688 -17.578125 50.90625 -19.554688 50.90625 -22.078125 C 50.90625 -24.460938 49.929688 -26.351562 47.984375 -27.75 C 46.046875 -29.144531 43.375 -29.84375 39.96875 -29.84375 Z M 25.25 -29.84375 "/></g></g></g><g fill="#1351b4" fill-opacity="1"><g transform="translate(292.664561, 209.815368)"><g><path d="M 44.0625 -23.09375 L 44.0625 0 L 25.96875 0 L 25.96875 -22.59375 L -0.515625 -71.546875 L 17.6875 -71.546875 L 34.953125 -40.375 L 51.828125 -71.546875 L 70.015625 -71.546875 Z M 44.0625 -23.09375 "/></g></g></g><g fill="#1351b4" fill-opacity="1"><g transform="translate(197.630043, 256.025846)"><g><path d="M 13.6875 -19.609375 C 15.507812 -19.609375 17.160156 -19.191406 18.640625 -18.359375 C 20.128906 -17.535156 21.289062 -16.367188 22.125 -14.859375 C 22.96875 -13.359375 23.390625 -11.648438 23.390625 -9.734375 C 23.390625 -7.785156 22.96875 -6.054688 22.125 -4.546875 C 21.289062 -3.046875 20.140625 -1.878906 18.671875 -1.046875 C 17.203125 -0.222656 15.539062 0.1875 13.6875 0.1875 C 12.113281 0.1875 10.691406 -0.140625 9.421875 -0.796875 C 8.148438 -1.453125 7.109375 -2.40625 6.296875 -3.65625 L 6.296875 7.171875 L 3.65625 7.171875 L 3.65625 -19.46875 L 6.171875 -19.46875 L 6.171875 -15.609375 C 6.960938 -16.890625 8.003906 -17.875 9.296875 -18.5625 C 10.597656 -19.257812 12.0625 -19.609375 13.6875 -19.609375 Z M 13.5 -2.140625 C 14.863281 -2.140625 16.097656 -2.453125 17.203125 -3.078125 C 18.316406 -3.710938 19.1875 -4.609375 19.8125 -5.765625 C 20.4375 -6.929688 20.75 -8.253906 20.75 -9.734375 C 20.75 -11.210938 20.4375 -12.523438 19.8125 -13.671875 C 19.1875 -14.816406 18.316406 -15.707031 17.203125 -16.34375 C 16.097656 -16.988281 14.863281 -17.3125 13.5 -17.3125 C 12.125 -17.3125 10.882812 -16.988281 9.78125 -16.34375 C 8.6875 -15.707031 7.820312 -14.816406 7.1875 -13.671875 C 6.5625 -12.523438 6.25 -11.210938 6.25 -9.734375 C 6.25 -8.253906 6.5625 -6.929688 7.1875 -5.765625 C 7.820312 -4.609375 8.6875 -3.710938 9.78125 -3.078125 C 10.882812 -2.453125 12.125 -2.140625 13.5 -2.140625 Z M 13.5 -2.140625 "/></g></g></g><g fill="#1351b4" fill-opacity="1"><g transform="translate(222.708507, 256.025846)"><g><path d="M 3.65625 -27.453125 L 6.296875 -27.453125 L 6.296875 0 L 3.65625 0 Z M 3.65625 -27.453125 "/></g></g></g><g fill="#1351b4" fill-opacity="1"><g transform="translate(232.65852, 256.025846)"><g><path d="M 10.46875 -19.609375 C 13.007812 -19.609375 14.957031 -18.972656 16.3125 -17.703125 C 17.675781 -16.429688 18.359375 -14.550781 18.359375 -12.0625 L 18.359375 0 L 15.84375 0 L 15.84375 -3.03125 C 15.25 -2.019531 14.375 -1.226562 13.21875 -0.65625 C 12.070312 -0.09375 10.710938 0.1875 9.140625 0.1875 C 6.972656 0.1875 5.242188 -0.328125 3.953125 -1.359375 C 2.671875 -2.398438 2.03125 -3.769531 2.03125 -5.46875 C 2.03125 -7.125 2.628906 -8.457031 3.828125 -9.46875 C 5.023438 -10.476562 6.929688 -10.984375 9.546875 -10.984375 L 15.71875 -10.984375 L 15.71875 -12.171875 C 15.71875 -13.847656 15.25 -15.125 14.3125 -16 C 13.375 -16.875 12.007812 -17.3125 10.21875 -17.3125 C 8.976562 -17.3125 7.789062 -17.109375 6.65625 -16.703125 C 5.519531 -16.296875 4.546875 -15.734375 3.734375 -15.015625 L 2.546875 -16.984375 C 3.535156 -17.816406 4.71875 -18.460938 6.09375 -18.921875 C 7.476562 -19.378906 8.9375 -19.609375 10.46875 -19.609375 Z M 9.546875 -1.890625 C 11.023438 -1.890625 12.296875 -2.226562 13.359375 -2.90625 C 14.421875 -3.582031 15.207031 -4.5625 15.71875 -5.84375 L 15.71875 -9.03125 L 9.625 -9.03125 C 6.289062 -9.03125 4.625 -7.867188 4.625 -5.546875 C 4.625 -4.410156 5.054688 -3.515625 5.921875 -2.859375 C 6.785156 -2.210938 7.992188 -1.890625 9.546875 -1.890625 Z M 9.546875 -1.890625 "/></g></g></g><g fill="#1351b4" fill-opacity="1"><g transform="translate(254.481955, 256.025846)"><g><path d="M 13.90625 -1.1875 C 13.414062 -0.738281 12.804688 -0.394531 12.078125 -0.15625 C 11.347656 0.0703125 10.59375 0.1875 9.8125 0.1875 C 7.976562 0.1875 6.566406 -0.304688 5.578125 -1.296875 C 4.597656 -2.285156 4.109375 -3.675781 4.109375 -5.46875 L 4.109375 -17.234375 L 0.625 -17.234375 L 0.625 -19.46875 L 4.109375 -19.46875 L 4.109375 -23.71875 L 6.734375 -23.71875 L 6.734375 -19.46875 L 12.65625 -19.46875 L 12.65625 -17.234375 L 6.734375 -17.234375 L 6.734375 -5.625 C 6.734375 -4.46875 7.019531 -3.585938 7.59375 -2.984375 C 8.175781 -2.378906 9.007812 -2.078125 10.09375 -2.078125 C 10.644531 -2.078125 11.171875 -2.160156 11.671875 -2.328125 C 12.179688 -2.503906 12.617188 -2.753906 12.984375 -3.078125 Z M 13.90625 -1.1875 "/></g></g></g><g fill="#1351b4" fill-opacity="1"><g transform="translate(269.499435, 256.025846)"><g><path d="M 10.09375 -25.421875 C 8.96875 -25.421875 8.113281 -25.109375 7.53125 -24.484375 C 6.945312 -23.867188 6.65625 -22.957031 6.65625 -21.75 L 6.65625 -19.46875 L 12.65625 -19.46875 L 12.65625 -17.234375 L 6.734375 -17.234375 L 6.734375 0 L 4.109375 0 L 4.109375 -17.234375 L 0.625 -17.234375 L 0.625 -19.46875 L 4.109375 -19.46875 L 4.109375 -21.859375 C 4.109375 -23.640625 4.617188 -25.046875 5.640625 -26.078125 C 6.660156 -27.117188 8.109375 -27.640625 9.984375 -27.640625 C 10.722656 -27.640625 11.4375 -27.535156 12.125 -27.328125 C 12.820312 -27.117188 13.40625 -26.816406 13.875 -26.421875 L 12.984375 -24.453125 C 12.222656 -25.097656 11.257812 -25.421875 10.09375 -25.421875 Z M 10.09375 -25.421875 "/></g></g></g><g fill="#1351b4" fill-opacity="1"><g transform="translate(282.038667, 256.025846)"><g><path d="M 11.625 0.1875 C 9.75 0.1875 8.054688 -0.238281 6.546875 -1.09375 C 5.046875 -1.945312 3.863281 -3.125 3 -4.625 C 2.132812 -6.125 1.703125 -7.828125 1.703125 -9.734375 C 1.703125 -11.628906 2.132812 -13.328125 3 -14.828125 C 3.863281 -16.335938 5.046875 -17.507812 6.546875 -18.34375 C 8.054688 -19.1875 9.75 -19.609375 11.625 -19.609375 C 13.5 -19.609375 15.1875 -19.1875 16.6875 -18.34375 C 18.1875 -17.507812 19.363281 -16.335938 20.21875 -14.828125 C 21.070312 -13.328125 21.5 -11.628906 21.5 -9.734375 C 21.5 -7.828125 21.070312 -6.125 20.21875 -4.625 C 19.363281 -3.125 18.1875 -1.945312 16.6875 -1.09375 C 15.1875 -0.238281 13.5 0.1875 11.625 0.1875 Z M 11.625 -2.140625 C 13 -2.140625 14.234375 -2.453125 15.328125 -3.078125 C 16.429688 -3.710938 17.289062 -4.609375 17.90625 -5.765625 C 18.519531 -6.929688 18.828125 -8.253906 18.828125 -9.734375 C 18.828125 -11.210938 18.519531 -12.53125 17.90625 -13.6875 C 17.289062 -14.84375 16.429688 -15.734375 15.328125 -16.359375 C 14.234375 -16.992188 13 -17.3125 11.625 -17.3125 C 10.238281 -17.3125 8.992188 -16.992188 7.890625 -16.359375 C 6.796875 -15.734375 5.929688 -14.84375 5.296875 -13.6875 C 4.671875 -12.53125 4.359375 -11.210938 4.359375 -9.734375 C 4.359375 -8.253906 4.671875 -6.929688 5.296875 -5.765625 C 5.929688 -4.609375 6.796875 -3.710938 7.890625 -3.078125 C 8.992188 -2.453125 10.238281 -2.140625 11.625 -2.140625 Z M 11.625 -2.140625 "/></g></g></g><g fill="#1351b4" fill-opacity="1"><g transform="translate(305.230689, 256.025846)"><g><path d="M 6.171875 -15.65625 C 6.796875 -16.957031 7.71875 -17.941406 8.9375 -18.609375 C 10.15625 -19.273438 11.664062 -19.609375 13.46875 -19.609375 L 13.46875 -17.0625 L 12.84375 -17.09375 C 10.789062 -17.09375 9.1875 -16.460938 8.03125 -15.203125 C 6.875 -13.941406 6.296875 -12.179688 6.296875 -9.921875 L 6.296875 0 L 3.65625 0 L 3.65625 -19.46875 L 6.171875 -19.46875 Z M 6.171875 -15.65625 "/></g></g></g><g fill="#1351b4" fill-opacity="1"><g transform="translate(320.063232, 256.025846)"><g><path d="M 27.9375 -19.609375 C 30.375 -19.609375 32.289062 -18.90625 33.6875 -17.5 C 35.082031 -16.09375 35.78125 -14.019531 35.78125 -11.28125 L 35.78125 0 L 33.15625 0 L 33.15625 -11.03125 C 33.15625 -13.050781 32.664062 -14.585938 31.6875 -15.640625 C 30.71875 -16.703125 29.34375 -17.234375 27.5625 -17.234375 C 25.539062 -17.234375 23.945312 -16.609375 22.78125 -15.359375 C 21.625 -14.117188 21.046875 -12.40625 21.046875 -10.21875 L 21.046875 0 L 18.421875 0 L 18.421875 -11.03125 C 18.421875 -13.050781 17.929688 -14.585938 16.953125 -15.640625 C 15.984375 -16.703125 14.597656 -17.234375 12.796875 -17.234375 C 10.804688 -17.234375 9.222656 -16.609375 8.046875 -15.359375 C 6.878906 -14.117188 6.296875 -12.40625 6.296875 -10.21875 L 6.296875 0 L 3.65625 0 L 3.65625 -19.46875 L 6.171875 -19.46875 L 6.171875 -15.90625 C 6.867188 -17.09375 7.832031 -18.003906 9.0625 -18.640625 C 10.300781 -19.285156 11.71875 -19.609375 13.3125 -19.609375 C 14.945312 -19.609375 16.359375 -19.257812 17.546875 -18.5625 C 18.742188 -17.875 19.640625 -16.851562 20.234375 -15.5 C 20.953125 -16.78125 21.984375 -17.785156 23.328125 -18.515625 C 24.671875 -19.242188 26.207031 -19.609375 27.9375 -19.609375 Z M 27.9375 -19.609375 "/></g></g></g></svg>