<svg xmlns="http://www.w3.org/2000/svg" xmlns:xlink="http://www.w3.org/1999/xlink" width="500" zoomAndPan="magnify" viewBox="0 0 375 374.999991" height="500" preserveAspectRatio="xMidYMid meet" version="1.0"><defs><clipPath id="f553dba8d1"><path d="M 175.414062 7.246094 L 293.386719 7.246094 L 293.386719 183.515625 L 175.414062 183.515625 Z M 175.414062 7.246094 " clip-rule="nonzero"/></clipPath><clipPath id="f1901a8d2d"><path d="M 89.738281 103.449219 L 182.371094 103.449219 L 182.371094 183.515625 L 89.738281 183.515625 Z M 89.738281 103.449219 " clip-rule="nonzero"/></clipPath><clipPath id="bab61cb373"><path d="M 147.597656 55.347656 L 237.726562 55.347656 L 237.726562 183.515625 L 147.597656 183.515625 Z M 147.597656 55.347656 " clip-rule="nonzero"/></clipPath><clipPath id="5b1ef3af7a"><path d="M 81.394531 0.0195312 L 189 0.0195312 L 189 183.515625 L 81.394531 183.515625 Z M 81.394531 0.0195312 " clip-rule="nonzero"/></clipPath><clipPath id="3bbd0add82"><path d="M 175.414062 191.472656 L 293.386719 191.472656 L 293.386719 367.742188 L 175.414062 367.742188 Z M 175.414062 191.472656 " clip-rule="nonzero"/></clipPath><clipPath id="f727b9ea14"><path d="M 89.738281 191.472656 L 182.371094 191.472656 L 182.371094 271.539062 L 89.738281 271.539062 Z M 89.738281 191.472656 " clip-rule="nonzero"/></clipPath><clipPath id="89e925e41c"><path d="M 147.597656 191.472656 L 237.726562 191.472656 L 237.726562 319.640625 L 147.597656 319.640625 Z M 147.597656 191.472656 " clip-rule="nonzero"/></clipPath><clipPath id="0d844a3204"><path d="M 81.394531 191.472656 L 189 191.472656 L 189 374.714844 L 81.394531 374.714844 Z M 81.394531 191.472656 " clip-rule="nonzero"/></clipPath></defs><g clip-path="url(#f553dba8d1)"><path fill="#1351b4" d="M 261.078125 183.515625 L 293.390625 183.515625 L 191.652344 7.378906 L 175.492188 35.351562 L 261.078125 183.515625 " fill-opacity="1" fill-rule="nonzero"/></g><g clip-path="url(#f1901a8d2d)"><path fill="#25cffe" d="M 136.015625 103.695312 L 89.910156 183.515625 L 182.121094 183.515625 Z M 136.015625 103.695312 " fill-opacity="1" fill-rule="nonzero"/></g><g clip-path="url(#bab61cb373)"><path fill="#1351b4" d="M 205.507812 183.515625 L 237.691406 183.515625 L 163.800781 55.59375 L 147.707031 83.453125 L 205.507812 183.515625 " fill-opacity="1" fill-rule="nonzero"/></g><g clip-path="url(#5b1ef3af7a)"><path fill="#1351b4" d="M 84.289062 183.515625 L 81.394531 183.515625 L 187.53125 0.0195312 L 188.90625 2.421875 L 84.289062 183.515625 " fill-opacity="1" fill-rule="nonzero"/></g><g clip-path="url(#3bbd0add82)"><path fill="#36d7ff" d="M 261.078125 191.472656 L 293.390625 191.472656 L 191.652344 367.609375 L 175.492188 339.636719 L 261.078125 191.472656 " fill-opacity="1" fill-rule="nonzero"/></g><g clip-path="url(#f727b9ea14)"><path fill="#0061a9" d="M 136.015625 271.292969 L 89.910156 191.472656 L 182.121094 191.472656 Z M 136.015625 271.292969 " fill-opacity="1" fill-rule="nonzero"/></g><g clip-path="url(#89e925e41c)"><path fill="#36d7ff" d="M 205.507812 191.472656 L 237.691406 191.472656 L 163.800781 319.394531 L 147.707031 291.535156 L 205.507812 191.472656 " fill-opacity="1" fill-rule="nonzero"/></g><g clip-path="url(#0d844a3204)"><path fill="#36d7ff" d="M 84.289062 191.472656 L 81.394531 191.472656 L 187.53125 374.96875 L 188.90625 372.566406 L 84.289062 191.472656 " fill-opacity="1" fill-rule="nonzero"/></g></svg>